{"accessors" : [{"bufferView" : 0, "byteOffset" : 0, "componentType" : 5123, "count" : 288, "type" : "SCALAR", "max" : [248], "min" : [0]}, {"bufferView" : 1, "byteOffset" : 0, "componentType" : 5126, "count" : 249, "type" : "VEC3", "max" : [1, 0, 1], "min" : [-1, 0, -1], "name" : "POSITION"}, {"bufferView" : 1, "byteOffset" : 12, "componentType" : 5126, "count" : 249, "type" : "VEC3", "max" : [0, 1.0000044107437134, 0], "min" : [0, 1.0000042915344238, 0], "name" : "NORMAL"}, {"bufferView" : 1, "byteOffset" : 24, "componentType" : 5126, "count" : 249, "type" : "VEC2", "max" : [1, 2], "min" : [0, 0.017037034034729004], "name" : "TEXCOORD_0"}, {"bufferView" : 0, "byteOffset" : 576, "componentType" : 5123, "count" : 600, "type" : "SCALAR", "max" : [508], "min" : [0]}, {"bufferView" : 2, "byteOffset" : 0, "componentType" : 5126, "count" : 509, "type" : "VEC3", "max" : [0.5, 0, 0.5], "min" : [-0.5, 0, -0.5], "name" : "POSITION"}, {"bufferView" : 2, "byteOffset" : 12, "componentType" : 5126, "count" : 509, "type" : "VEC3", "max" : [0, 1.0000044107437134, 0], "min" : [0, 1.0000044107437134, 0], "name" : "NORMAL"}, {"bufferView" : 2, "byteOffset" : 24, "componentType" : 5126, "count" : 509, "type" : "VEC2", "max" : [1, 2], "min" : [0, 0.09999996423721313], "name" : "TEXCOORD_0"}, {"bufferView" : 0, "byteOffset" : 1776, "componentType" : 5123, "count" : 4254, "type" : "SCALAR", "max" : [3703], "min" : [0]}, {"bufferView" : 3, "byteOffset" : 0, "componentType" : 5126, "count" : 3704, "type" : "VEC3", "max" : [1.0316405296325684, 6.256242275238037, 1.0000001192092896], "min" : [-1.000000238418579, 0.21514368057250977, -2.5687291622161865], "name" : "POSITION"}, {"bufferView" : 3, "byteOffset" : 12, "componentType" : 5126, "count" : 3704, "type" : "VEC3", "max" : [0.9999816417694092, 1.0000044107437134, 0.9997912049293518], "min" : [-0.9999816417694092, -1.0000044107437134, -0.9998500347137451], "name" : "NORMAL"}, {"bufferView" : 3, "byteOffset" : 24, "componentType" : 5126, "count" : 3704, "type" : "VEC2", "max" : [1.0000001192092896, 2], "min" : [0, 7.450580596923828E-08], "name" : "TEXCOORD_0"}], "asset" : {"generator" : "Aspose.3D 21.11", "version" : "2.0"}, "buffers" : [{"uri" : "data:application/octet-stream;base64,", "byteLength" : 174844}], "bufferViews" : [{"buffer" : 0, "byteOffset" : 0, "byteLength" : 10284, "target" : 34963}, {"buffer" : 0, "byteOffset" : 10288, "byteLength" : 9216, "byteStride" : 32, "target" : 34962}, {"buffer" : 0, "byteOffset" : 19508, "byteLength" : 19200, "byteStride" : 32, "target" : 34962}, {"buffer" : 0, "byteOffset" : 38712, "byteLength" : 136128, "byteStride" : 32, "target" : 34962}], "materials" : [{"pbrMetallicRoughness" : {"baseColorFactor" : [0.5, 0.5, 0.5, 1], "metallicFactor" : 0, "roughnessFactor" : 1}, "emissiveFactor" : [0, 0, 0], "alphaMode" : "OPAQUE", "doubleSided" : false}, {"pbrMetallicRoughness" : {"baseColorFactor" : [0.5, 0.5, 0.5, 1], "metallicFactor" : 0, "roughnessFactor" : 1}, "emissiveFactor" : [0, 0, 0], "alphaMode" : "OPAQUE", "doubleSided" : false}, {"pbrMetallicRoughness" : {"baseColorFactor" : [0.5, 0.5, 0.5, 1], "metallicFactor" : 0, "roughnessFactor" : 1}, "emissiveFactor" : [0, 0, 0], "alphaMode" : "OPAQUE", "doubleSided" : false}], "meshes" : [{"primitives" : [{"attributes" : {"POSITION" : 1, "NORMAL" : 2, "TEXCOORD_0" : 3}, "indices" : 0, "material" : 0, "mode" : 4}]}, {"primitives" : [{"attributes" : {"POSITION" : 5, "NORMAL" : 6, "TEXCOORD_0" : 7}, "indices" : 4, "material" : 1, "mode" : 4}]}, {"primitives" : [{"attributes" : {"POSITION" : 9, "NORMAL" : 10, "TEXCOORD_0" : 11}, "indices" : 8, "material" : 2, "mode" : 4}]}], "nodes" : [{"matrix" : [0.9683032818428555, 0, 0, 0, 0, 0.9683032818428555, 0, 0, 0, 0, 0.9683032818428555, 0, 0, 0.23290685522152388, 0, 1], "mesh" : 0, "name" : "Node #4"}, {"matrix" : [25.68156488602862, 0, 0, 0, 0, 25.68156488602862, 0, 0, 0, 0, 25.68156488602862, 0, 0.75679938862298, 0.06715228525883644, -0.29074626592214425, 1], "mesh" : 1, "name" : "Node #24"}, {"matrix" : [1, 0, 0, 0, 0, 1, 0, 0, 0, 0, 1, 0, 0, 0.007098966196994461, 0, 1], "mesh" : 2, "name" : "Node #26"}], "scene" : 0, "scenes" : [{"nodes" : [0, 1, 2]}]}